<svg width="40" height="40" viewBox="0 0 40 40" fill="none" xmlns="http://www.w3.org/2000/svg">
<path d="M35 16.6666H5M35 19.1666V14.6666C35 11.8664 35 10.4663 34.455 9.39669C33.9757 8.45588 33.2108 7.69098 32.27 7.21161C31.2004 6.66665 29.8003 6.66665 27 6.66665H13C10.1997 6.66665 8.79961 6.66665 7.73005 7.21161C6.78924 7.69098 6.02433 8.45588 5.54497 9.39669C5 10.4663 5 11.8664 5 14.6666V28.6666C5 31.4669 5 32.867 5.54497 33.9366C6.02433 34.8774 6.78924 35.6423 7.73005 36.1217C8.79961 36.6666 10.1997 36.6666 13 36.6666H20.8333M26.6667 3.33331V9.99998M13.3333 3.33331V9.99998M29.1627 26.1865C27.9964 24.888 26.0515 24.5387 24.5902 25.7278C23.129 26.9169 22.9232 28.905 24.0708 30.3113C25.2183 31.7177 29.1627 35 29.1627 35C29.1627 35 33.107 31.7177 34.2546 30.3113C35.4021 28.905 35.2215 26.9044 33.7351 25.7278C32.2487 24.5512 30.329 24.888 29.1627 26.1865Z" stroke="#DC2668" stroke-width="3.33333" stroke-linecap="round" stroke-linejoin="round"/>
</svg>
