<svg width="1440" height="317" viewBox="0 0 1440 317" fill="none" xmlns="http://www.w3.org/2000/svg">
<path d="M282.823 52.5609L214.953 237.655L185.543 252.066L140.58 118.969L98.4441 237.655L69.034 252.066L-3.64283 51.9958L-30.5078 35.8884L-24.852 24.585H52.6322V33.3451L31.9886 48.8873L90.8088 214.482L132.944 96.9269L117.674 51.7132L91.6572 35.8884L97.3129 24.585H180.453V33.3451L155.285 52.8435L207.884 213.917L266.138 52.8435L215.802 35.8884L221.457 24.585H307.425V33.3451L282.823 52.5609Z" fill="#FFFBEB"/>
<path d="M444.993 246.697H391.264V222.112L359.308 247.262C355.538 248.77 350.825 249.523 345.169 249.523C328.956 249.523 317.173 245.473 309.82 237.372C302.656 229.271 299.074 219.569 299.074 208.266C299.074 201.484 301.525 194.796 306.427 188.202C311.328 181.608 318.304 175.391 327.353 169.551H391.264V151.466C391.264 139.221 387.964 130.555 381.366 125.468C374.956 120.381 366.095 117.838 354.784 117.838C343.095 117.838 328.767 124.903 311.8 139.032L303.316 128.294L344.038 96.0791C351.579 94.572 360.628 93.8184 371.186 93.8184C388.341 93.8184 401.633 98.0572 411.059 106.535C420.485 114.824 425.198 126.975 425.198 142.988V225.503L450.649 235.394L444.993 246.697ZM354.218 225.503C365.718 225.503 378.067 220.228 391.264 209.679V181.137H341.21C338.759 184.152 336.968 187.166 335.837 190.18C334.894 193.194 334.423 196.491 334.423 200.071C334.423 207.041 336.214 213.07 339.796 218.156C343.378 223.054 348.185 225.503 354.218 225.503Z" fill="#FFFBEB"/>
<path d="M648.346 246.98H594.616V151.748C594.616 141.387 593.013 134.134 589.808 129.989C586.603 125.845 580.853 123.773 572.558 123.773C566.337 123.773 560.115 124.903 553.894 127.164C547.861 129.424 540.697 133.757 532.402 140.162V225.786L557.853 235.676L552.197 246.98H473.299V238.22L498.467 218.439V138.467L473.299 123.773V115.012L521.656 91.2752L530.988 128.011L571.144 96.0791C575.103 94.572 580.288 93.8184 586.697 93.8184C599.517 93.8184 609.698 97.7746 617.239 105.687C624.78 113.411 628.55 123.961 628.55 137.337V225.503L654.001 235.676L648.346 246.98Z" fill="#FFFBEB"/>
<path d="M847.358 246.697H793.628V226.351L767.329 247.262C761.296 248.77 754.038 249.523 745.554 249.523C733.112 249.523 721.894 246.32 711.902 239.915C702.099 233.322 694.369 224.467 688.714 213.352C683.246 202.237 680.513 189.992 680.513 176.616C680.513 162.11 684.943 148.546 693.804 135.924C702.665 123.113 713.693 112.94 726.89 105.404C740.276 97.6804 753.19 93.8184 765.632 93.8184C776.001 93.8184 785.428 96.7385 793.911 102.579V44.3659L768.743 26.8456V18.0855L817.1 0H827.846V225.503L853.014 235.394L847.358 246.697ZM759.977 225.503C765.632 225.503 771.005 224.75 776.096 223.243C781.374 221.547 787.219 218.439 793.628 213.917V149.488C792.497 140.068 788.067 132.438 780.337 126.598C772.796 120.57 762.427 117.556 749.231 117.556C727.927 117.556 717.275 132.721 717.275 163.052C717.275 180.761 720.952 195.643 728.304 207.7C735.657 219.569 746.214 225.503 759.977 225.503Z" fill="#FFFBEB"/>
<path d="M972.373 247.262C964.832 248.77 955.783 249.523 945.226 249.523C932.783 249.523 921.566 246.32 911.574 239.915C901.77 233.322 894.041 224.467 888.385 213.352C882.918 202.237 880.184 189.992 880.184 176.616C880.184 162.11 884.615 148.546 893.475 135.924C902.336 123.113 913.365 112.94 926.562 105.404C939.947 97.6804 952.861 93.8184 965.304 93.8184C983.214 93.8184 997.07 100.883 1006.87 115.012C1016.87 129.142 1021.86 147.792 1021.86 170.964H917.229C918.361 186.977 922.697 200.071 930.238 210.244C937.967 220.417 948.431 225.503 961.627 225.503C973.882 225.503 991.32 215.99 1013.94 196.962L1022.43 207.7L972.373 247.262ZM948.902 117.556C928.541 117.556 917.889 131.497 916.947 159.378H983.119C981.423 149.205 979.632 141.481 977.746 136.206C976.05 130.743 972.939 126.316 968.414 122.925C964.078 119.345 957.574 117.556 948.902 117.556Z" fill="#FFFBEB"/>
<path d="M1159.74 94.101C1165.96 94.101 1171.43 95.7965 1176.15 99.1876C1180.86 102.579 1184.53 107.288 1187.17 113.317L1168.51 136.771H1157.76C1157.01 132.062 1155.6 128.765 1153.52 126.881C1151.64 124.809 1149 123.773 1145.6 123.773C1141.46 123.773 1137.03 124.903 1132.31 127.164C1127.79 129.236 1122.6 133.286 1116.76 139.315V223.525L1156.35 235.676L1150.69 246.98H1057.66V238.22L1082.82 218.439V138.467L1057.66 123.773V115.012L1106.01 91.2752L1114.78 126.033L1144.19 96.0791C1148.15 94.572 1153.33 93.8184 1159.74 93.8184V94.101Z" fill="#FFFBEB"/>
<path d="M1277.54 246.697H1198.64V237.937L1223.81 218.156V44.3659L1198.64 26.8456V18.0855L1247 0H1257.75V225.503L1283.2 235.394L1277.54 246.697Z" fill="#FFFBEB"/>
<path d="M1458 105.404L1386.45 246.697L1327.63 321.3L1316.89 312.822C1327.63 301.33 1335.74 291.252 1341.21 282.586C1346.86 273.92 1350.82 265.16 1353.09 256.305C1355.35 247.639 1356.48 237.278 1356.48 225.221L1320.85 139.032L1294.55 123.773V115.012L1342.9 91.2752L1353.65 133.946L1388.15 218.156L1428.02 135.359L1390.41 107.948L1396.07 96.6443H1458V105.404Z" fill="#FFFBEB"/>
</svg>
