<svg width="320" height="111" viewBox="0 0 320 111" fill="none" xmlns="http://www.w3.org/2000/svg">
<path d="M91.2672 55.7848V41.8217H85.9448V40.2702H98.3565V41.8217H93.0341V55.7848H91.2672Z" fill="#461A02"/>
<path d="M112.034 56.0003C110.957 56.0003 109.966 55.8064 109.06 55.4185C108.17 55.0163 107.394 54.456 106.733 53.7378C106.072 53.0051 105.555 52.1504 105.182 51.1735C104.823 50.1967 104.643 49.1265 104.643 47.9629C104.643 46.4258 104.959 45.0611 105.591 43.8688C106.223 42.6764 107.092 41.7427 108.199 41.0675C109.319 40.3923 110.59 40.0548 112.013 40.0548C113.463 40.0548 114.742 40.3923 115.848 41.0675C116.969 41.7427 117.845 42.6764 118.477 43.8688C119.109 45.0611 119.425 46.433 119.425 47.9844C119.425 49.148 119.238 50.2182 118.865 51.1951C118.506 52.1719 117.996 53.0195 117.335 53.7378C116.674 54.456 115.891 55.0163 114.986 55.4185C114.081 55.8064 113.097 56.0003 112.034 56.0003ZM112.013 54.4058C113.119 54.4058 114.088 54.1328 114.922 53.5869C115.769 53.0267 116.43 52.2581 116.904 51.2813C117.378 50.3044 117.615 49.1911 117.615 47.9413C117.615 46.7059 117.378 45.6141 116.904 44.666C116.444 43.7179 115.791 42.9781 114.943 42.4466C114.11 41.9151 113.133 41.6493 112.013 41.6493C110.892 41.6493 109.915 41.9151 109.082 42.4466C108.249 42.9781 107.602 43.7179 107.143 44.666C106.683 45.5998 106.453 46.6916 106.453 47.9413C106.453 49.2055 106.683 50.326 107.143 51.3028C107.617 52.2653 108.27 53.0267 109.104 53.5869C109.937 54.1328 110.906 54.4058 112.013 54.4058Z" fill="#461A02"/>
<path d="M133.757 56.0003C131.89 56.0003 130.432 55.4329 129.383 54.298C128.349 53.1488 127.832 51.547 127.832 49.4928V40.2702H129.599V49.579C129.599 51.1304 129.958 52.3228 130.676 53.156C131.394 53.9892 132.421 54.4058 133.757 54.4058C135.122 54.4058 136.164 53.9963 136.882 53.1775C137.6 52.3443 137.959 51.1448 137.959 49.579V40.2702H139.726V49.5143C139.726 51.5542 139.202 53.1488 138.153 54.298C137.105 55.4329 135.639 56.0003 133.757 56.0003Z" fill="#461A02"/>
<path d="M148.672 55.7848V40.2702H154.404C155.51 40.2702 156.451 40.4498 157.227 40.8089C158.003 41.1681 158.592 41.6709 158.994 42.3173C159.41 42.9494 159.619 43.7036 159.619 44.5798C159.619 45.4561 159.41 46.2247 158.994 46.8855C158.592 47.5319 158.003 48.0419 157.227 48.4154C156.451 48.7745 155.51 48.9541 154.404 48.9541H149.965V47.4026H154.34C155.489 47.4026 156.358 47.1512 156.947 46.6485C157.55 46.1457 157.852 45.4561 157.852 44.5798C157.852 43.7179 157.557 43.0427 156.968 42.5543C156.379 42.0659 155.503 41.8217 154.34 41.8217H150.439V55.7848H148.672ZM157.766 55.7848L149.513 48.0922H151.926L160.438 55.7848H157.766Z" fill="#461A02"/>
<path d="M173.442 55.9788C171.632 55.9788 170.188 55.5334 169.111 54.6428C168.048 53.7521 167.423 52.4808 167.236 50.8288H168.96C169.118 52.0211 169.571 52.9189 170.318 53.5223C171.065 54.1256 172.099 54.4273 173.42 54.4273C174.541 54.4273 175.381 54.219 175.942 53.8024C176.516 53.3714 176.804 52.7466 176.804 51.9277C176.804 51.2238 176.61 50.6636 176.222 50.247C175.834 49.8304 175.231 49.4856 174.412 49.2127L171.804 48.3077C170.483 47.848 169.506 47.2949 168.874 46.6485C168.242 45.9876 167.926 45.1545 167.926 44.1489C167.926 43.3157 168.134 42.5974 168.551 41.9941C168.967 41.3764 169.556 40.8951 170.318 40.5504C171.079 40.2056 171.962 40.0332 172.968 40.0332C174.519 40.0332 175.762 40.4426 176.696 41.2614C177.63 42.0659 178.168 43.2151 178.312 44.7091H176.588C176.401 43.6317 176.013 42.8416 175.424 42.3388C174.85 41.8361 174.017 41.5847 172.925 41.5847C171.891 41.5847 171.086 41.793 170.511 42.2096C169.937 42.6262 169.65 43.2151 169.65 43.9765C169.65 44.6229 169.851 45.1401 170.253 45.528C170.655 45.9158 171.28 46.2534 172.128 46.5407L174.907 47.5104C176.114 47.927 177.019 48.4944 177.622 49.2127C178.226 49.9166 178.527 50.8144 178.527 51.9062C178.527 53.1991 178.082 54.2046 177.191 54.9229C176.315 55.6268 175.065 55.9788 173.442 55.9788Z" fill="#461A02"/>
<path d="M43.2844 7.26615L33.9087 32.854L29.8459 34.8463L23.6345 16.4465L17.8138 32.854L13.751 34.8463L3.71121 7.18803L0 4.9613L0.781307 3.39869H11.4852V4.60971L8.63344 6.75831L16.759 29.6506L22.5798 13.3994L20.4702 7.14896L16.8762 4.9613L17.6575 3.39869H29.1428V4.60971L25.6659 7.30522L32.9321 29.5725L40.9796 7.30522L34.0259 4.9613L34.8072 3.39869H46.6831V4.60971L43.2844 7.26615Z" fill="#461A02"/>
<path d="M65.6872 34.1041H58.2648V30.7054L53.8504 34.1822C53.3295 34.3905 52.6784 34.4947 51.8971 34.4947C49.6574 34.4947 48.0296 33.9348 47.0139 32.8149C46.0243 31.695 45.5294 30.3538 45.5294 28.7912C45.5294 27.8536 45.868 26.9291 46.5451 26.0175C47.2223 25.106 48.1859 24.2466 49.436 23.4392H58.2648V20.939C58.2648 19.2462 57.809 18.0482 56.8975 17.345C56.012 16.6418 54.7879 16.2903 53.2253 16.2903C51.6106 16.2903 49.6313 17.2669 47.2874 19.2202L46.1154 17.7357L51.7408 13.2822C52.7826 13.0739 54.0327 12.9697 55.4911 12.9697C57.8611 12.9697 59.6972 13.5557 60.9993 14.7276C62.3015 15.8736 62.9526 17.5534 62.9526 19.7671V31.1742L66.4685 32.5414L65.6872 34.1041ZM53.1472 31.1742C54.7358 31.1742 56.4417 30.4449 58.2648 28.9865V25.0409H51.3502C51.0116 25.4576 50.7642 25.8743 50.6079 26.291C50.4777 26.7077 50.4126 27.1634 50.4126 27.6583C50.4126 28.6219 50.66 29.4553 51.1549 30.1585C51.6497 30.8356 52.3138 31.1742 53.1472 31.1742Z" fill="#461A02"/>
<path d="M93.7788 34.1431H86.3564V20.9781C86.3564 19.5457 86.135 18.543 85.6923 17.9701C85.2495 17.3971 84.4552 17.1106 83.3093 17.1106C82.4499 17.1106 81.5904 17.2669 80.731 17.5794C79.8976 17.8919 78.9079 18.4909 77.762 19.3764V31.2132L81.2779 32.5805L80.4966 34.1431H69.5974V32.9321L73.0742 30.1975V19.142L69.5974 17.1106V15.8996L76.2775 12.6181L77.5667 17.6966L83.114 13.2822C83.6609 13.0739 84.3771 12.9697 85.2626 12.9697C87.0335 12.9697 88.4399 13.5166 89.4816 14.6104C90.5234 15.6782 91.0443 17.1367 91.0443 18.9858V31.1742L94.5601 32.5805L93.7788 34.1431Z" fill="#461A02"/>
<path d="M121.271 34.1041H113.849V31.2913L110.216 34.1822C109.382 34.3905 108.379 34.4947 107.208 34.4947C105.489 34.4947 103.939 34.052 102.559 33.1665C101.204 32.255 100.137 31.0309 99.3554 29.4943C98.6001 27.9578 98.2225 26.2649 98.2225 24.4158C98.2225 22.4105 98.8345 20.5354 100.059 18.7904C101.283 17.0195 102.806 15.6131 104.629 14.5714C106.478 13.5036 108.262 12.9697 109.981 12.9697C111.414 12.9697 112.716 13.3734 113.888 14.1807V6.13326L110.411 3.71121V2.50018L117.091 0H118.576V31.1742L122.052 32.5414L121.271 34.1041ZM109.2 31.1742C109.981 31.1742 110.723 31.07 111.427 30.8616C112.156 30.6272 112.963 30.1975 113.849 29.5725V20.6656C113.692 19.3634 113.08 18.3086 112.013 17.5013C110.971 16.6679 109.538 16.2512 107.715 16.2512C104.772 16.2512 103.301 18.3477 103.301 22.5407C103.301 24.9888 103.809 27.0462 104.825 28.713C105.84 30.3538 107.299 31.1742 109.2 31.1742Z" fill="#461A02"/>
<path d="M138.541 34.1822C137.499 34.3905 136.249 34.4947 134.791 34.4947C133.072 34.4947 131.522 34.052 130.142 33.1665C128.788 32.255 127.72 31.0309 126.939 29.4943C126.183 27.9578 125.806 26.2649 125.806 24.4158C125.806 22.4105 126.418 20.5354 127.642 18.7904C128.866 17.0195 130.389 15.6131 132.212 14.5714C134.062 13.5036 135.845 12.9697 137.564 12.9697C140.039 12.9697 141.953 13.9463 143.307 15.8996C144.687 17.8529 145.377 20.4312 145.377 23.6345H130.923C131.08 25.8482 131.679 27.6583 132.72 29.0646C133.788 30.471 135.233 31.1742 137.057 31.1742C138.749 31.1742 141.158 29.859 144.284 27.2285L145.456 28.713L138.541 34.1822ZM135.299 16.2512C132.486 16.2512 131.014 18.1784 130.884 22.0329H140.025C139.791 20.6265 139.544 19.5587 139.283 18.8295C139.049 18.0742 138.619 17.4622 137.994 16.9934C137.395 16.4986 136.497 16.2512 135.299 16.2512Z" fill="#461A02"/>
<path d="M164.425 13.0088C165.284 13.0088 166.04 13.2432 166.691 13.7119C167.342 14.1807 167.85 14.8318 168.214 15.6652L165.636 18.9076H164.151C164.047 18.2565 163.852 17.8008 163.565 17.5403C163.305 17.2539 162.94 17.1106 162.472 17.1106C161.899 17.1106 161.287 17.2669 160.635 17.5794C160.01 17.8659 159.294 18.4258 158.487 19.2592V30.9007L163.956 32.5805L163.175 34.1431H150.322V32.9321L153.799 30.1975V19.142L150.322 17.1106V15.8996L157.002 12.6181L158.213 17.4231L162.276 13.2822C162.823 13.0739 163.539 12.9697 164.425 12.9697V13.0088Z" fill="#461A02"/>
<path d="M180.698 34.1041H169.798V32.893L173.275 30.1585V6.13326L169.798 3.71121V2.50018L176.479 0H177.963V31.1742L181.479 32.5414L180.698 34.1041Z" fill="#461A02"/>
<path d="M205.627 14.5714L195.743 34.1041L187.618 44.4173L186.133 43.2453C187.618 41.6567 188.738 40.2634 189.493 39.0654C190.274 37.8673 190.821 36.6563 191.134 35.4323C191.446 34.2343 191.602 32.8019 191.602 31.1351L186.68 19.2202L183.047 17.1106V15.8996L189.727 12.6181L191.212 18.517L195.978 30.1585L201.486 18.7123L196.29 14.923L197.072 13.3604H205.627V14.5714Z" fill="#461A02"/>
<path d="M32.6727 40.2988L47.229 47.1812L65.4243 42.8797L83.6196 55.7842H10.8384L32.6727 40.2988Z" fill="#F9A008"/>
<path d="M22.44 88.2375L17.523 104H15.609L11.616 91.9775C11.5793 91.8602 11.5427 91.7355 11.506 91.6035C11.4767 91.4715 11.4437 91.3322 11.407 91.1855C11.3703 91.3322 11.3337 91.4715 11.297 91.6035C11.2603 91.7355 11.2237 91.8602 11.187 91.9775L7.172 104H5.258L0.341 88.2375H2.112C2.30267 88.2375 2.46033 88.2852 2.585 88.3805C2.717 88.4758 2.80133 88.5968 2.838 88.7435L6.094 99.6995C6.14533 99.8975 6.193 100.11 6.237 100.337C6.28833 100.565 6.336 100.807 6.38 101.063C6.43133 100.807 6.48267 100.565 6.534 100.337C6.59267 100.103 6.655 99.8902 6.721 99.6995L10.428 88.7435C10.472 88.6188 10.5563 88.5052 10.681 88.4025C10.813 88.2925 10.9707 88.2375 11.154 88.2375H11.77C11.9607 88.2375 12.1147 88.2852 12.232 88.3805C12.3493 88.4758 12.4373 88.5968 12.496 88.7435L16.192 99.6995C16.258 99.8902 16.3167 100.095 16.368 100.315C16.4267 100.535 16.4817 100.766 16.533 101.008C16.5697 100.766 16.61 100.535 16.654 100.315C16.698 100.095 16.7457 99.8902 16.797 99.6995L20.064 88.7435C20.1007 88.6115 20.1813 88.4942 20.306 88.3915C20.438 88.2888 20.5957 88.2375 20.779 88.2375H22.44ZM29.5573 98.9845C28.6553 99.0138 27.8853 99.0872 27.2473 99.2045C26.6167 99.3145 26.0997 99.4612 25.6963 99.6445C25.3003 99.8278 25.0107 100.044 24.8273 100.293C24.6513 100.543 24.5633 100.821 24.5633 101.129C24.5633 101.423 24.611 101.676 24.7063 101.888C24.8017 102.101 24.93 102.277 25.0913 102.416C25.26 102.548 25.4543 102.647 25.6743 102.713C25.9017 102.772 26.1437 102.801 26.4003 102.801C26.745 102.801 27.0603 102.768 27.3463 102.702C27.6323 102.629 27.9 102.526 28.1493 102.394C28.406 102.262 28.648 102.105 28.8753 101.921C29.11 101.738 29.3373 101.529 29.5573 101.294V98.9845ZM23.2323 94.4305C23.8483 93.8365 24.512 93.3928 25.2233 93.0995C25.9347 92.8062 26.723 92.6595 27.5883 92.6595C28.2117 92.6595 28.7653 92.7622 29.2493 92.9675C29.7333 93.1728 30.1403 93.4588 30.4703 93.8255C30.8003 94.1922 31.0497 94.6358 31.2183 95.1565C31.387 95.6772 31.4713 96.2492 31.4713 96.8725V104H30.6023C30.4117 104 30.265 103.971 30.1623 103.912C30.0597 103.846 29.979 103.722 29.9203 103.538L29.7003 102.482C29.407 102.754 29.121 102.996 28.8423 103.208C28.5637 103.414 28.2703 103.59 27.9623 103.736C27.6543 103.876 27.3243 103.982 26.9723 104.055C26.6277 104.136 26.2427 104.176 25.8173 104.176C25.3847 104.176 24.9777 104.118 24.5963 104C24.215 103.876 23.8813 103.692 23.5953 103.45C23.3167 103.208 23.093 102.904 22.9243 102.537C22.763 102.163 22.6823 101.723 22.6823 101.217C22.6823 100.777 22.8033 100.356 23.0453 99.9525C23.2873 99.5418 23.6797 99.1788 24.2223 98.8635C24.765 98.5482 25.4727 98.2915 26.3453 98.0935C27.218 97.8882 28.2887 97.7708 29.5573 97.7415V96.8725C29.5573 96.0072 29.3703 95.3545 28.9963 94.9145C28.6223 94.4672 28.076 94.2435 27.3573 94.2435C26.8733 94.2435 26.4663 94.3058 26.1363 94.4305C25.8137 94.5478 25.5313 94.6835 25.2893 94.8375C25.0547 94.9842 24.8493 95.1198 24.6733 95.2445C24.5047 95.3618 24.336 95.4205 24.1673 95.4205C24.0353 95.4205 23.9217 95.3875 23.8263 95.3215C23.731 95.2482 23.6503 95.1602 23.5843 95.0575L23.2323 94.4305ZM36.7419 94.4745C36.9839 94.2032 37.2406 93.9575 37.5119 93.7375C37.7832 93.5175 38.0692 93.3305 38.3699 93.1765C38.6779 93.0152 39.0006 92.8942 39.3379 92.8135C39.6826 92.7255 40.0529 92.6815 40.4489 92.6815C41.0576 92.6815 41.5929 92.7842 42.0549 92.9895C42.5242 93.1875 42.9129 93.4735 43.2209 93.8475C43.5362 94.2142 43.7746 94.6578 43.9359 95.1785C44.0972 95.6992 44.1779 96.2748 44.1779 96.9055V104H42.2089V96.9055C42.2089 96.0622 42.0146 95.4095 41.6259 94.9475C41.2446 94.4782 40.6616 94.2435 39.8769 94.2435C39.2976 94.2435 38.7549 94.3828 38.2489 94.6615C37.7502 94.9402 37.2882 95.3178 36.8629 95.7945V104H34.8939V92.8575H36.0709C36.3496 92.8575 36.5219 92.9932 36.5879 93.2645L36.7419 94.4745ZM54.8615 95.5085C54.4948 95.0172 54.0988 94.6762 53.6735 94.4855C53.2481 94.2875 52.7715 94.1885 52.2435 94.1885C51.2095 94.1885 50.4138 94.5588 49.8565 95.2995C49.2991 96.0402 49.0205 97.0962 49.0205 98.4675C49.0205 99.1935 49.0828 99.8168 49.2075 100.337C49.3321 100.851 49.5155 101.276 49.7575 101.613C49.9995 101.943 50.2965 102.185 50.6485 102.339C51.0005 102.493 51.4001 102.57 51.8475 102.57C52.4928 102.57 53.0538 102.424 53.5305 102.13C54.0145 101.837 54.4581 101.423 54.8615 100.887V95.5085ZM56.8195 87.7975V104H55.6535C55.3748 104 55.1988 103.865 55.1255 103.593L54.9495 102.24C54.4728 102.812 53.9301 103.274 53.3215 103.626C52.7128 103.978 52.0088 104.154 51.2095 104.154C50.5715 104.154 49.9921 104.033 49.4715 103.791C48.9508 103.542 48.5071 103.179 48.1405 102.702C47.7738 102.226 47.4915 101.632 47.2935 100.92C47.0955 100.209 46.9965 99.3915 46.9965 98.4675C46.9965 97.6462 47.1065 96.8835 47.3265 96.1795C47.5465 95.4682 47.8618 94.8522 48.2725 94.3315C48.6831 93.8108 49.1855 93.4038 49.7795 93.1105C50.3808 92.8098 51.0555 92.6595 51.8035 92.6595C52.4855 92.6595 53.0685 92.7768 53.5525 93.0115C54.0438 93.2388 54.4801 93.5578 54.8615 93.9685V87.7975H56.8195ZM67.81 97.2135C67.81 96.7588 67.744 96.3445 67.612 95.9705C67.4873 95.5892 67.3003 95.2628 67.051 94.9915C66.809 94.7128 66.512 94.5002 66.16 94.3535C65.808 94.1995 65.4083 94.1225 64.961 94.1225C64.0223 94.1225 63.278 94.3975 62.728 94.9475C62.1853 95.4902 61.848 96.2455 61.716 97.2135H67.81ZM69.394 102.438C69.152 102.732 68.8623 102.988 68.525 103.208C68.1877 103.421 67.8247 103.597 67.436 103.736C67.0547 103.876 66.6587 103.978 66.248 104.044C65.8373 104.118 65.4303 104.154 65.027 104.154C64.257 104.154 63.5457 104.026 62.893 103.769C62.2477 103.505 61.6867 103.124 61.21 102.625C60.7407 102.119 60.374 101.496 60.11 100.755C59.846 100.015 59.714 99.1642 59.714 98.2035C59.714 97.4262 59.8313 96.7002 60.066 96.0255C60.308 95.3508 60.6527 94.7678 61.1 94.2765C61.5473 93.7778 62.0937 93.3892 62.739 93.1105C63.3843 92.8245 64.1103 92.6815 64.917 92.6815C65.5843 92.6815 66.2003 92.7952 66.765 93.0225C67.337 93.2425 67.8283 93.5652 68.239 93.9905C68.657 94.4085 68.9833 94.9292 69.218 95.5525C69.4527 96.1685 69.57 96.8725 69.57 97.6645C69.57 97.9725 69.537 98.1778 69.471 98.2805C69.405 98.3832 69.2803 98.4345 69.097 98.4345H61.65C61.672 99.1385 61.7673 99.7508 61.936 100.271C62.112 100.792 62.354 101.228 62.662 101.58C62.97 101.925 63.3367 102.185 63.762 102.361C64.1873 102.53 64.664 102.614 65.192 102.614C65.6833 102.614 66.105 102.559 66.457 102.449C66.8163 102.332 67.1243 102.207 67.381 102.075C67.6377 101.943 67.8503 101.822 68.019 101.712C68.195 101.595 68.3453 101.536 68.47 101.536C68.6313 101.536 68.756 101.599 68.844 101.723L69.394 102.438ZM74.2741 95.0905C74.6261 94.3278 75.0587 93.7338 75.5721 93.3085C76.0854 92.8758 76.7124 92.6595 77.4531 92.6595C77.6877 92.6595 77.9114 92.6852 78.1241 92.7365C78.3441 92.7878 78.5384 92.8685 78.7071 92.9785L78.5641 94.4415C78.5201 94.6248 78.4101 94.7165 78.2341 94.7165C78.1314 94.7165 77.9811 94.6945 77.7831 94.6505C77.5851 94.6065 77.3614 94.5845 77.1121 94.5845C76.7601 94.5845 76.4447 94.6358 76.1661 94.7385C75.8947 94.8412 75.6491 94.9952 75.4291 95.2005C75.2164 95.3985 75.0221 95.6478 74.8461 95.9485C74.6774 96.2418 74.5234 96.5792 74.3841 96.9605V104H72.4151V92.8575H73.5371C73.7497 92.8575 73.8964 92.8978 73.9771 92.9785C74.0577 93.0592 74.1127 93.1985 74.1421 93.3965L74.2741 95.0905ZM101.381 92.8575L97.7728 104H96.2218C96.0311 104 95.8991 103.876 95.8258 103.626L93.3618 96.0695C93.3031 95.9008 93.2555 95.7322 93.2188 95.5635C93.1821 95.3875 93.1455 95.2152 93.1088 95.0465C93.0721 95.2152 93.0355 95.3875 92.9988 95.5635C92.9621 95.7322 92.9145 95.9045 92.8558 96.0805L90.3478 103.626C90.2818 103.876 90.1351 104 89.9078 104H88.4338L84.8258 92.8575H86.3658C86.5198 92.8575 86.6481 92.8978 86.7508 92.9785C86.8608 93.0592 86.9341 93.1545 86.9708 93.2645L89.1048 100.436C89.2295 100.964 89.3285 101.463 89.4018 101.932C89.4678 101.69 89.5338 101.445 89.5998 101.195C89.6731 100.946 89.7501 100.693 89.8308 100.436L92.1848 93.2205C92.2215 93.1105 92.2838 93.0188 92.3718 92.9455C92.4671 92.8722 92.5808 92.8355 92.7128 92.8355H93.5708C93.7175 92.8355 93.8385 92.8722 93.9338 92.9455C94.0291 93.0188 94.0951 93.1105 94.1318 93.2205L96.4308 100.436C96.5115 100.693 96.5848 100.946 96.6508 101.195C96.7168 101.445 96.7791 101.69 96.8378 101.932C96.8745 101.69 96.9185 101.448 96.9698 101.206C97.0285 100.957 97.0908 100.7 97.1568 100.436L99.3348 93.2645C99.3715 93.1472 99.4411 93.0518 99.5438 92.9785C99.6465 92.8978 99.7675 92.8575 99.9068 92.8575H101.381ZM111.035 97.2135C111.035 96.7588 110.969 96.3445 110.837 95.9705C110.712 95.5892 110.525 95.2628 110.276 94.9915C110.034 94.7128 109.737 94.5002 109.385 94.3535C109.033 94.1995 108.633 94.1225 108.186 94.1225C107.247 94.1225 106.503 94.3975 105.953 94.9475C105.41 95.4902 105.073 96.2455 104.941 97.2135H111.035ZM112.619 102.438C112.377 102.732 112.087 102.988 111.75 103.208C111.413 103.421 111.05 103.597 110.661 103.736C110.28 103.876 109.884 103.978 109.473 104.044C109.062 104.118 108.655 104.154 108.252 104.154C107.482 104.154 106.771 104.026 106.118 103.769C105.473 103.505 104.912 103.124 104.435 102.625C103.966 102.119 103.599 101.496 103.335 100.755C103.071 100.015 102.939 99.1642 102.939 98.2035C102.939 97.4262 103.056 96.7002 103.291 96.0255C103.533 95.3508 103.878 94.7678 104.325 94.2765C104.772 93.7778 105.319 93.3892 105.964 93.1105C106.609 92.8245 107.335 92.6815 108.142 92.6815C108.809 92.6815 109.425 92.7952 109.99 93.0225C110.562 93.2425 111.053 93.5652 111.464 93.9905C111.882 94.4085 112.208 94.9292 112.443 95.5525C112.678 96.1685 112.795 96.8725 112.795 97.6645C112.795 97.9725 112.762 98.1778 112.696 98.2805C112.63 98.3832 112.505 98.4345 112.322 98.4345H104.875C104.897 99.1385 104.992 99.7508 105.161 100.271C105.337 100.792 105.579 101.228 105.887 101.58C106.195 101.925 106.562 102.185 106.987 102.361C107.412 102.53 107.889 102.614 108.417 102.614C108.908 102.614 109.33 102.559 109.682 102.449C110.041 102.332 110.349 102.207 110.606 102.075C110.863 101.943 111.075 101.822 111.244 101.712C111.42 101.595 111.57 101.536 111.695 101.536C111.856 101.536 111.981 101.599 112.069 101.723L112.619 102.438ZM117.664 87.7975V104H115.706V87.7975H117.664ZM123.303 87.7975V104H121.345V87.7975H123.303ZM126.588 102.79C126.588 102.6 126.621 102.42 126.687 102.251C126.761 102.083 126.856 101.936 126.973 101.811C127.098 101.687 127.245 101.588 127.413 101.514C127.582 101.441 127.762 101.404 127.952 101.404C128.143 101.404 128.323 101.441 128.491 101.514C128.66 101.588 128.807 101.687 128.931 101.811C129.056 101.936 129.155 102.083 129.228 102.251C129.302 102.42 129.338 102.6 129.338 102.79C129.338 102.988 129.302 103.172 129.228 103.34C129.155 103.502 129.056 103.645 128.931 103.769C128.807 103.894 128.66 103.989 128.491 104.055C128.323 104.129 128.143 104.165 127.952 104.165C127.762 104.165 127.582 104.129 127.413 104.055C127.245 103.989 127.098 103.894 126.973 103.769C126.856 103.645 126.761 103.502 126.687 103.34C126.621 103.172 126.588 102.988 126.588 102.79ZM149.081 90.0305H143.977V104H141.854V90.0305H136.739V88.2375H149.081V90.0305ZM150.83 95.0905C151.182 94.3278 151.614 93.7338 152.128 93.3085C152.641 92.8758 153.268 92.6595 154.009 92.6595C154.243 92.6595 154.467 92.6852 154.68 92.7365C154.9 92.7878 155.094 92.8685 155.263 92.9785L155.12 94.4415C155.076 94.6248 154.966 94.7165 154.79 94.7165C154.687 94.7165 154.537 94.6945 154.339 94.6505C154.141 94.6065 153.917 94.5845 153.668 94.5845C153.316 94.5845 153 94.6358 152.722 94.7385C152.45 94.8412 152.205 94.9952 151.985 95.2005C151.772 95.3985 151.578 95.6478 151.402 95.9485C151.233 96.2418 151.079 96.5792 150.94 96.9605V104H148.971V92.8575H150.093C150.305 92.8575 150.452 92.8978 150.533 92.9785C150.613 93.0592 150.668 93.1985 150.698 93.3965L150.83 95.0905ZM163.292 98.9845C162.39 99.0138 161.62 99.0872 160.982 99.2045C160.351 99.3145 159.834 99.4612 159.431 99.6445C159.035 99.8278 158.745 100.044 158.562 100.293C158.386 100.543 158.298 100.821 158.298 101.129C158.298 101.423 158.345 101.676 158.441 101.888C158.536 102.101 158.664 102.277 158.826 102.416C158.994 102.548 159.189 102.647 159.409 102.713C159.636 102.772 159.878 102.801 160.135 102.801C160.479 102.801 160.795 102.768 161.081 102.702C161.367 102.629 161.634 102.526 161.884 102.394C162.14 102.262 162.382 102.105 162.61 101.921C162.844 101.738 163.072 101.529 163.292 101.294V98.9845ZM156.967 94.4305C157.583 93.8365 158.246 93.3928 158.958 93.0995C159.669 92.8062 160.457 92.6595 161.323 92.6595C161.946 92.6595 162.5 92.7622 162.984 92.9675C163.468 93.1728 163.875 93.4588 164.205 93.8255C164.535 94.1922 164.784 94.6358 164.953 95.1565C165.121 95.6772 165.206 96.2492 165.206 96.8725V104H164.337C164.146 104 163.999 103.971 163.897 103.912C163.794 103.846 163.713 103.722 163.655 103.538L163.435 102.482C163.141 102.754 162.855 102.996 162.577 103.208C162.298 103.414 162.005 103.59 161.697 103.736C161.389 103.876 161.059 103.982 160.707 104.055C160.362 104.136 159.977 104.176 159.552 104.176C159.119 104.176 158.712 104.118 158.331 104C157.949 103.876 157.616 103.692 157.33 103.45C157.051 103.208 156.827 102.904 156.659 102.537C156.497 102.163 156.417 101.723 156.417 101.217C156.417 100.777 156.538 100.356 156.78 99.9525C157.022 99.5418 157.414 99.1788 157.957 98.8635C158.499 98.5482 159.207 98.2915 160.08 98.0935C160.952 97.8882 162.023 97.7708 163.292 97.7415V96.8725C163.292 96.0072 163.105 95.3545 162.731 94.9145C162.357 94.4672 161.81 94.2435 161.092 94.2435C160.608 94.2435 160.201 94.3058 159.871 94.4305C159.548 94.5478 159.266 94.6835 159.024 94.8375C158.789 94.9842 158.584 95.1198 158.408 95.2445C158.239 95.3618 158.07 95.4205 157.902 95.4205C157.77 95.4205 157.656 95.3875 157.561 95.3215C157.465 95.2482 157.385 95.1602 157.319 95.0575L156.967 94.4305ZM177.94 92.8575L173.397 104H171.637L167.094 92.8575H168.689C168.85 92.8575 168.982 92.8978 169.085 92.9785C169.187 93.0592 169.257 93.1545 169.294 93.2645L172.121 100.436C172.209 100.708 172.286 100.972 172.352 101.228C172.418 101.485 172.48 101.742 172.539 101.998C172.597 101.742 172.66 101.485 172.726 101.228C172.792 100.972 172.872 100.708 172.968 100.436L175.828 93.2645C175.872 93.1472 175.945 93.0518 176.048 92.9785C176.15 92.8978 176.271 92.8575 176.411 92.8575H177.94ZM187.333 97.2135C187.333 96.7588 187.267 96.3445 187.135 95.9705C187.01 95.5892 186.823 95.2628 186.574 94.9915C186.332 94.7128 186.035 94.5002 185.683 94.3535C185.331 94.1995 184.931 94.1225 184.484 94.1225C183.545 94.1225 182.801 94.3975 182.251 94.9475C181.708 95.4902 181.371 96.2455 181.239 97.2135H187.333ZM188.917 102.438C188.675 102.732 188.385 102.988 188.048 103.208C187.71 103.421 187.347 103.597 186.959 103.736C186.577 103.876 186.181 103.978 185.771 104.044C185.36 104.118 184.953 104.154 184.55 104.154C183.78 104.154 183.068 104.026 182.416 103.769C181.77 103.505 181.209 103.124 180.733 102.625C180.263 102.119 179.897 101.496 179.633 100.755C179.369 100.015 179.237 99.1642 179.237 98.2035C179.237 97.4262 179.354 96.7002 179.589 96.0255C179.831 95.3508 180.175 94.7678 180.623 94.2765C181.07 93.7778 181.616 93.3892 182.262 93.1105C182.907 92.8245 183.633 92.6815 184.44 92.6815C185.107 92.6815 185.723 92.7952 186.288 93.0225C186.86 93.2425 187.351 93.5652 187.762 93.9905C188.18 94.4085 188.506 94.9292 188.741 95.5525C188.975 96.1685 189.093 96.8725 189.093 97.6645C189.093 97.9725 189.06 98.1778 188.994 98.2805C188.928 98.3832 188.803 98.4345 188.62 98.4345H181.173C181.195 99.1385 181.29 99.7508 181.459 100.271C181.635 100.792 181.877 101.228 182.185 101.58C182.493 101.925 182.859 102.185 183.285 102.361C183.71 102.53 184.187 102.614 184.715 102.614C185.206 102.614 185.628 102.559 185.98 102.449C186.339 102.332 186.647 102.207 186.904 102.075C187.16 101.943 187.373 101.822 187.542 101.712C187.718 101.595 187.868 101.536 187.993 101.536C188.154 101.536 188.279 101.599 188.367 101.723L188.917 102.438ZM193.962 87.7975V104H192.004V87.7975H193.962ZM210.136 94.6945C210.048 94.8558 209.912 94.9365 209.729 94.9365C209.619 94.9365 209.494 94.8962 209.355 94.8155C209.216 94.7348 209.043 94.6468 208.838 94.5515C208.64 94.4488 208.402 94.3572 208.123 94.2765C207.844 94.1885 207.514 94.1445 207.133 94.1445C206.803 94.1445 206.506 94.1885 206.242 94.2765C205.978 94.3572 205.751 94.4708 205.56 94.6175C205.377 94.7642 205.234 94.9365 205.131 95.1345C205.036 95.3252 204.988 95.5342 204.988 95.7615C204.988 96.0475 205.069 96.2858 205.23 96.4765C205.399 96.6672 205.619 96.8322 205.89 96.9715C206.161 97.1108 206.469 97.2355 206.814 97.3455C207.159 97.4482 207.511 97.5618 207.87 97.6865C208.237 97.8038 208.592 97.9358 208.937 98.0825C209.282 98.2292 209.59 98.4125 209.861 98.6325C210.132 98.8525 210.349 99.1238 210.51 99.4465C210.679 99.7618 210.763 100.143 210.763 100.59C210.763 101.104 210.671 101.58 210.488 102.02C210.305 102.453 210.033 102.831 209.674 103.153C209.315 103.469 208.875 103.718 208.354 103.901C207.833 104.085 207.232 104.176 206.55 104.176C205.773 104.176 205.069 104.052 204.438 103.802C203.807 103.546 203.272 103.219 202.832 102.823L203.294 102.075C203.353 101.98 203.422 101.907 203.503 101.855C203.584 101.804 203.686 101.778 203.811 101.778C203.943 101.778 204.082 101.83 204.229 101.932C204.376 102.035 204.552 102.149 204.757 102.273C204.97 102.398 205.226 102.512 205.527 102.614C205.828 102.717 206.202 102.768 206.649 102.768C207.03 102.768 207.364 102.721 207.65 102.625C207.936 102.523 208.174 102.387 208.365 102.218C208.556 102.05 208.695 101.855 208.783 101.635C208.878 101.415 208.926 101.181 208.926 100.931C208.926 100.623 208.842 100.37 208.673 100.172C208.512 99.9672 208.295 99.7948 208.024 99.6555C207.753 99.5088 207.441 99.3842 207.089 99.2815C206.744 99.1715 206.389 99.0578 206.022 98.9405C205.663 98.8232 205.307 98.6912 204.955 98.5445C204.61 98.3905 204.302 98.1998 204.031 97.9725C203.76 97.7452 203.54 97.4665 203.371 97.1365C203.21 96.7992 203.129 96.3922 203.129 95.9155C203.129 95.4902 203.217 95.0832 203.393 94.6945C203.569 94.2985 203.826 93.9538 204.163 93.6605C204.5 93.3598 204.915 93.1215 205.406 92.9455C205.897 92.7695 206.458 92.6815 207.089 92.6815C207.822 92.6815 208.479 92.7988 209.058 93.0335C209.645 93.2608 210.151 93.5762 210.576 93.9795L210.136 94.6945ZM215.628 87.7975V104H213.67V87.7975H215.628ZM223.94 92.6815C224.754 92.6815 225.487 92.8172 226.14 93.0885C226.792 93.3598 227.35 93.7448 227.812 94.2435C228.274 94.7422 228.626 95.3472 228.868 96.0585C229.117 96.7625 229.242 97.5508 229.242 98.4235C229.242 99.3035 229.117 100.095 228.868 100.799C228.626 101.503 228.274 102.105 227.812 102.603C227.35 103.102 226.792 103.487 226.14 103.758C225.487 104.022 224.754 104.154 223.94 104.154C223.118 104.154 222.378 104.022 221.718 103.758C221.065 103.487 220.508 103.102 220.046 102.603C219.584 102.105 219.228 101.503 218.979 100.799C218.737 100.095 218.616 99.3035 218.616 98.4235C218.616 97.5508 218.737 96.7625 218.979 96.0585C219.228 95.3472 219.584 94.7422 220.046 94.2435C220.508 93.7448 221.065 93.3598 221.718 93.0885C222.378 92.8172 223.118 92.6815 223.94 92.6815ZM223.94 102.625C225.04 102.625 225.861 102.259 226.404 101.525C226.946 100.785 227.218 99.7545 227.218 98.4345C227.218 97.1072 226.946 96.0732 226.404 95.3325C225.861 94.5918 225.04 94.2215 223.94 94.2215C223.382 94.2215 222.895 94.3168 222.477 94.5075C222.066 94.6982 221.721 94.9732 221.443 95.3325C221.171 95.6918 220.966 96.1355 220.827 96.6635C220.695 97.1842 220.629 97.7745 220.629 98.4345C220.629 99.7545 220.9 100.785 221.443 101.525C221.993 102.259 222.825 102.625 223.94 102.625ZM247.36 92.8575L243.752 104H242.201C242.011 104 241.879 103.876 241.805 103.626L239.341 96.0695C239.283 95.9008 239.235 95.7322 239.198 95.5635C239.162 95.3875 239.125 95.2152 239.088 95.0465C239.052 95.2152 239.015 95.3875 238.978 95.5635C238.942 95.7322 238.894 95.9045 238.835 96.0805L236.327 103.626C236.261 103.876 236.115 104 235.887 104H234.413L230.805 92.8575H232.345C232.499 92.8575 232.628 92.8978 232.73 92.9785C232.84 93.0592 232.914 93.1545 232.95 93.2645L235.084 100.436C235.209 100.964 235.308 101.463 235.381 101.932C235.447 101.69 235.513 101.445 235.579 101.195C235.653 100.946 235.73 100.693 235.81 100.436L238.164 93.2205C238.201 93.1105 238.263 93.0188 238.351 92.9455C238.447 92.8722 238.56 92.8355 238.692 92.8355H239.55C239.697 92.8355 239.818 92.8722 239.913 92.9455C240.009 93.0188 240.075 93.1105 240.111 93.2205L242.41 100.436C242.491 100.693 242.564 100.946 242.63 101.195C242.696 101.445 242.759 101.69 242.817 101.932C242.854 101.69 242.898 101.448 242.949 101.206C243.008 100.957 243.07 100.7 243.136 100.436L245.314 93.2645C245.351 93.1472 245.421 93.0518 245.523 92.9785C245.626 92.8978 245.747 92.8575 245.886 92.8575H247.36ZM248.904 102.79C248.904 102.6 248.937 102.42 249.003 102.251C249.076 102.083 249.172 101.936 249.289 101.811C249.414 101.687 249.56 101.588 249.729 101.514C249.898 101.441 250.077 101.404 250.268 101.404C250.459 101.404 250.638 101.441 250.807 101.514C250.976 101.588 251.122 101.687 251.247 101.811C251.372 101.936 251.471 102.083 251.544 102.251C251.617 102.42 251.654 102.6 251.654 102.79C251.654 102.988 251.617 103.172 251.544 103.34C251.471 103.502 251.372 103.645 251.247 103.769C251.122 103.894 250.976 103.989 250.807 104.055C250.638 104.129 250.459 104.165 250.268 104.165C250.077 104.165 249.898 104.129 249.729 104.055C249.56 103.989 249.414 103.894 249.289 103.769C249.172 103.645 249.076 103.502 249.003 103.34C248.937 103.172 248.904 102.988 248.904 102.79Z" fill="#505A62"/>
</svg>
