<svg width="32" height="32" viewBox="0 0 32 32" fill="none" xmlns="http://www.w3.org/2000/svg">
<path d="M8.00033 26.7828H11.4807C11.9345 26.7828 12.3855 26.8368 12.8254 26.9448L16.5028 27.8384C17.3008 28.0328 18.132 28.0517 18.9383 27.8951L23.0043 27.1041C24.0784 26.8949 25.0664 26.3805 25.8408 25.6273L28.7175 22.8289C29.539 22.0311 29.539 20.7365 28.7175 19.9374C27.9779 19.2179 26.8066 19.1369 25.9698 19.747L22.6171 22.1931C22.137 22.5441 21.5527 22.733 20.9519 22.733H17.7143L19.7751 22.733C20.9366 22.733 21.8775 21.8177 21.8775 20.6878V20.2788C21.8775 19.3406 21.2211 18.5226 20.2858 18.2958L17.1051 17.5223C16.5875 17.3967 16.0574 17.3333 15.5245 17.3333C14.2381 17.3333 11.9095 18.3984 11.9095 18.3984L8.00033 20.0331M2.66699 19.4666L2.66699 27.1999C2.66699 27.9467 2.66699 28.32 2.81232 28.6053C2.94015 28.8561 3.14412 29.0601 3.395 29.1879C3.68022 29.3333 4.05359 29.3333 4.80032 29.3333H5.86699C6.61373 29.3333 6.9871 29.3333 7.27231 29.188C7.5232 29.0601 7.72717 28.8561 7.855 28.6053C8.00033 28.32 8.00033 27.9467 8.00033 27.1999V19.4666C8.00033 18.7199 8.00033 18.3465 7.855 18.0613C7.72717 17.8104 7.5232 17.6064 7.27231 17.4786C6.9871 17.3333 6.61373 17.3333 5.86699 17.3333H4.80033C4.05359 17.3333 3.68022 17.3333 3.39501 17.4786C3.14412 17.6064 2.94015 17.8104 2.81232 18.0613C2.66699 18.3465 2.66699 18.7199 2.66699 19.4666ZM22.9222 4.78961C22.1264 3.12447 20.2918 2.24232 18.5076 3.09377C16.7234 3.94522 15.9633 5.96445 16.7103 7.73704C17.1719 8.83255 18.4947 10.9599 19.4378 12.4253C19.7863 12.9668 19.9605 13.2375 20.215 13.3958C20.4333 13.5317 20.7065 13.6049 20.9635 13.5964C21.2631 13.5865 21.5494 13.4392 22.1219 13.1445C23.6713 12.347 25.8805 11.166 26.8281 10.4481C28.3613 9.2865 28.7411 7.15138 27.5932 5.52826C26.4453 3.90515 24.4439 3.74544 22.9222 4.78961Z" stroke="#DC2668" stroke-width="2.66667" stroke-linecap="round" stroke-linejoin="round"/>
</svg>
