<svg width="22" height="18" viewBox="0 0 22 18" fill="none" xmlns="http://www.w3.org/2000/svg">
<path d="M20.5001 15L13.8573 9M8.14298 9L1.50016 15M1.00012 4L9.16504 9.71544C9.82621 10.1783 10.1568 10.4097 10.5164 10.4993C10.834 10.5785 11.1662 10.5785 11.4839 10.4993C11.8434 10.4097 12.174 10.1783 12.8352 9.71544L21.0001 4M5.80012 17H16.2001C17.8803 17 18.7204 17 19.3621 16.673C19.9266 16.3854 20.3855 15.9265 20.6731 15.362C21.0001 14.7202 21.0001 13.8802 21.0001 12.2V5.8C21.0001 4.11984 21.0001 3.27976 20.6731 2.63803C20.3855 2.07354 19.9266 1.6146 19.3621 1.32698C18.7204 1 17.8803 1 16.2001 1H5.80012C4.11996 1 3.27989 1 2.63815 1.32698C2.07366 1.6146 1.61472 2.07354 1.3271 2.63803C1.00012 3.27976 1.00012 4.11984 1.00012 5.8V12.2C1.00012 13.8802 1.00012 14.7202 1.3271 15.362C1.61472 15.9265 2.07366 16.3854 2.63815 16.673C3.27989 17 4.11996 17 5.80012 17Z" stroke="white" stroke-width="2" stroke-linecap="round" stroke-linejoin="round"/>
</svg>
