<svg width="40" height="40" viewBox="0 0 40 40" fill="none" xmlns="http://www.w3.org/2000/svg">
<path d="M13.333 35V11.6667C13.333 10.1167 13.333 9.34174 13.5034 8.7059C13.9657 6.98044 15.3135 5.63271 17.0389 5.17037C17.6747 5 18.4497 5 19.9997 5C21.5496 5 22.3246 5 22.9604 5.17037C24.6859 5.63271 26.0336 6.98044 26.496 8.7059C26.6663 9.34174 26.6663 10.1167 26.6663 11.6667V22.5M26.6663 29.1667V35M11.333 35H28.6663C31.4666 35 32.8667 35 33.9363 34.455C34.8771 33.9757 35.642 33.2108 36.1214 32.27C36.6663 31.2004 36.6663 29.8003 36.6663 27V19.6667C36.6663 16.8664 36.6663 15.4663 36.1214 14.3967C35.642 13.4559 34.8771 12.691 33.9363 12.2116C32.8667 11.6667 31.4666 11.6667 28.6663 11.6667H11.333C8.53275 11.6667 7.13261 11.6667 6.06306 12.2116C5.12224 12.691 4.35734 13.4559 3.87798 14.3967C3.33301 15.4663 3.33301 16.8664 3.33301 19.6667V27C3.33301 29.8003 3.33301 31.2004 3.87798 32.27C4.35734 33.2108 5.12224 33.9757 6.06306 34.455C7.13261 35 8.53275 35 11.333 35ZM21.333 29.1667H29.4997C29.9664 29.1667 30.1997 29.1667 30.378 29.0758C30.5348 28.9959 30.6623 28.8685 30.7422 28.7117C30.833 28.5334 30.833 28.3 30.833 27.8333V23.8333C30.833 23.3666 30.833 23.1333 30.7422 22.955C30.6623 22.7982 30.5348 22.6707 30.378 22.5908C30.1997 22.5 29.9664 22.5 29.4997 22.5H21.333C20.8663 22.5 20.6329 22.5 20.4547 22.5908C20.2979 22.6707 20.1704 22.7982 20.0905 22.955C19.9997 23.1333 19.9997 23.3666 19.9997 23.8333V27.8333C19.9997 28.3 19.9997 28.5334 20.0905 28.7117C20.1704 28.8685 20.2979 28.9959 20.4547 29.0758C20.6329 29.1667 20.8663 29.1667 21.333 29.1667Z" stroke="#DC2668" stroke-width="3.33333" stroke-linecap="round" stroke-linejoin="round"/>
</svg>
