<svg width="288" height="189" viewBox="0 0 288 189" fill="none" xmlns="http://www.w3.org/2000/svg">
<path d="M131.223 3.5V94.1885C131.223 142.311 121.452 182.121 101.647 213.379L101.648 213.38C82.3755 244.988 50.8121 264.074 7.5459 270.905L3.5 271.544V218.506L6.59082 218.142C31.234 215.242 48 205.922 57.7021 190.676C66.8316 176.329 71.9789 153.692 72.7119 122.28H4.61816V3.5H131.223ZM303.364 3.5V94.1885C303.364 142.311 293.594 182.121 273.789 213.379L273.79 213.38C254.517 244.988 222.954 264.074 179.688 270.905L175.642 271.544V218.506L178.732 218.142C203.376 215.242 220.142 205.922 229.844 190.676C238.973 176.329 244.12 153.692 244.854 122.28H176.76V3.5H303.364Z" stroke="#F2F4F5" stroke-width="7"/>
</svg>
