<svg width="48" height="48" viewBox="0 0 48 48" fill="none" xmlns="http://www.w3.org/2000/svg">
<rect width="48" height="48" rx="12" fill="#F9E3FF"/>
<path d="M33 28.5V19.7C33 18.5799 33 18.0198 32.782 17.592C32.5903 17.2157 32.2843 16.9097 31.908 16.718C31.4802 16.5 30.9201 16.5 29.8 16.5H18.2C17.0799 16.5 16.5198 16.5 16.092 16.718C15.7157 16.9097 15.4097 17.2157 15.218 17.592C15 18.0198 15 18.5799 15 19.7V28.5M16.6667 32.5H31.3333C31.9533 32.5 32.2633 32.5 32.5176 32.4319C33.2078 32.2469 33.7469 31.7078 33.9319 31.0176C34 30.7633 34 30.4533 34 29.8333C34 29.5233 34 29.3683 33.9659 29.2412C33.8735 28.8961 33.6039 28.6265 33.2588 28.5341C33.1317 28.5 32.9767 28.5 32.6667 28.5H15.3333C15.0233 28.5 14.8683 28.5 14.7412 28.5341C14.3961 28.6265 14.1265 28.8961 14.0341 29.2412C14 29.3683 14 29.5233 14 29.8333C14 30.4533 14 30.7633 14.0681 31.0176C14.2531 31.7078 14.7922 32.2469 15.4824 32.4319C15.7367 32.5 16.0467 32.5 16.6667 32.5Z" stroke="#9804C5" stroke-width="2" stroke-linecap="round" stroke-linejoin="round"/>
</svg>
