<svg width="48" height="48" viewBox="0 0 48 48" fill="none" xmlns="http://www.w3.org/2000/svg">
<rect width="48" height="48" rx="12" fill="#F9E3FF"/>
<path d="M22.4996 21.5022C22.6758 21.0014 23.0236 20.579 23.4814 20.31C23.9391 20.0409 24.4773 19.9426 25.0006 20.0324C25.524 20.1221 25.9986 20.3942 26.3406 20.8004C26.6825 21.2066 26.8697 21.7207 26.8689 22.2517C26.8689 23.7506 24.6205 24.5 24.6205 24.5M24.6495 27.5H24.6595M24.4996 32.5C29.194 32.5 32.9996 28.6944 32.9996 24C32.9996 19.3056 29.194 15.5 24.4996 15.5C19.8052 15.5 15.9996 19.3056 15.9996 24C15.9996 24.95 16.1555 25.8636 16.443 26.7166C16.5512 27.0376 16.6053 27.1981 16.6151 27.3214C16.6247 27.4432 16.6174 27.5286 16.5873 27.6469C16.5568 27.7668 16.4894 27.8915 16.3547 28.1408L14.7191 31.1684C14.4857 31.6002 14.3691 31.8161 14.3952 31.9828C14.4179 32.1279 14.5034 32.2557 14.6288 32.3322C14.7728 32.4201 15.0169 32.3948 15.5052 32.3444L20.6262 31.815C20.7813 31.799 20.8588 31.791 20.9295 31.7937C20.999 31.7963 21.0481 31.8029 21.1159 31.8185C21.1848 31.8344 21.2714 31.8678 21.4448 31.9345C22.3928 32.2998 23.4228 32.5 24.4996 32.5Z" stroke="#9804C5" stroke-width="2" stroke-linecap="round" stroke-linejoin="round"/>
</svg>
