<svg width="48" height="48" viewBox="0 0 48 48" fill="none" xmlns="http://www.w3.org/2000/svg">
<rect width="48" height="48" rx="12" fill="#F9E3FF"/>
<path d="M21 24.5L23 26.5L27.5 22M19.3338 16.3187C20.1376 16.2545 20.9007 15.9385 21.5145 15.4154C22.9467 14.1949 25.0533 14.1949 26.4855 15.4154C27.0993 15.9385 27.8624 16.2545 28.6662 16.3187C30.5421 16.4684 32.0316 17.9579 32.1813 19.8338C32.2455 20.6376 32.5615 21.4007 33.0846 22.0145C34.3051 23.4467 34.3051 25.5533 33.0846 26.9855C32.5615 27.5993 32.2455 28.3624 32.1813 29.1662C32.0316 31.0421 30.5421 32.5316 28.6662 32.6813C27.8624 32.7455 27.0993 33.0615 26.4855 33.5846C25.0533 34.8051 22.9467 34.8051 21.5145 33.5846C20.9007 33.0615 20.1376 32.7455 19.3338 32.6813C17.4579 32.5316 15.9684 31.0421 15.8187 29.1662C15.7545 28.3624 15.4385 27.5993 14.9154 26.9855C13.6949 25.5533 13.6949 23.4467 14.9154 22.0145C15.4385 21.4007 15.7545 20.6376 15.8187 19.8338C15.9684 17.9579 17.4579 16.4684 19.3338 16.3187Z" stroke="#9804C5" stroke-width="2" stroke-linecap="round" stroke-linejoin="round"/>
</svg>
