<svg width="48" height="48" viewBox="0 0 48 48" fill="none" xmlns="http://www.w3.org/2000/svg">
<rect width="48" height="48" rx="12" fill="#F9E3FF"/>
<path d="M18 32.5872H20.6103C20.9506 32.5872 21.2889 32.6277 21.6188 32.7087L24.3769 33.3789C24.9753 33.5247 25.5988 33.5389 26.2035 33.4214L29.253 32.8281C30.0585 32.6712 30.7996 32.2855 31.3803 31.7205L33.5379 29.6217C34.154 29.0234 34.154 28.0524 33.5379 27.4531C32.9832 26.9135 32.1047 26.8527 31.4771 27.3103L28.9626 29.1449C28.6025 29.4081 28.1643 29.5498 27.7137 29.5498H25.2855L26.8311 29.5498C27.7022 29.5498 28.4079 28.8633 28.4079 28.0159V27.7092C28.4079 27.0055 27.9156 26.392 27.2141 26.2219L24.8286 25.6418C24.4404 25.5476 24.0428 25.5 23.6431 25.5C22.6783 25.5 20.9319 26.2988 20.9319 26.2988L18 27.5249M14 27.1L14 32.9C14 33.4601 14 33.7401 14.109 33.954C14.2049 34.1422 14.3578 34.2951 14.546 34.391C14.7599 34.5 15.0399 34.5 15.6 34.5H16.4C16.9601 34.5 17.2401 34.5 17.454 34.391C17.6422 34.2952 17.7951 34.1422 17.891 33.954C18 33.7401 18 33.4601 18 32.9V27.1C18 26.54 18 26.2599 17.891 26.046C17.7951 25.8579 17.6422 25.7049 17.454 25.609C17.2401 25.5 16.9601 25.5 16.4 25.5H15.6C15.0399 25.5 14.7599 25.5 14.546 25.609C14.3578 25.7049 14.2049 25.8579 14.109 26.046C14 26.2599 14 26.54 14 27.1ZM29.1914 16.0923C28.5946 14.8434 27.2186 14.1818 25.8804 14.8204C24.5423 15.459 23.9722 16.9734 24.5325 18.3028C24.8787 19.1245 25.8707 20.72 26.5781 21.819C26.8394 22.2251 26.9701 22.4282 27.161 22.5469C27.3247 22.6488 27.5297 22.7037 27.7224 22.6974C27.9471 22.6899 28.1618 22.5794 28.5911 22.3584C29.7532 21.7603 31.4101 20.8746 32.1208 20.3361C33.2707 19.4649 33.5556 17.8636 32.6947 16.6463C31.8337 15.4289 30.3327 15.3091 29.1914 16.0923Z" stroke="#9804C5" stroke-width="2" stroke-linecap="round" stroke-linejoin="round"/>
</svg>
