<svg width="48" height="48" viewBox="0 0 48 48" fill="none" xmlns="http://www.w3.org/2000/svg">
<rect width="48" height="48" rx="12" fill="#F9E3FF"/>
<path d="M20 26.5C20 26.5 21.5 28.5 24 28.5C26.5 28.5 28 26.5 28 26.5M27 21.5H27.01M21 21.5H21.01M34 24.5C34 30.0228 29.5228 34.5 24 34.5C18.4772 34.5 14 30.0228 14 24.5C14 18.9772 18.4772 14.5 24 14.5C29.5228 14.5 34 18.9772 34 24.5ZM27.5 21.5C27.5 21.7761 27.2761 22 27 22C26.7239 22 26.5 21.7761 26.5 21.5C26.5 21.2239 26.7239 21 27 21C27.2761 21 27.5 21.2239 27.5 21.5ZM21.5 21.5C21.5 21.7761 21.2761 22 21 22C20.7239 22 20.5 21.7761 20.5 21.5C20.5 21.2239 20.7239 21 21 21C21.2761 21 21.5 21.2239 21.5 21.5Z" stroke="#9804C5" stroke-width="2" stroke-linecap="round" stroke-linejoin="round"/>
</svg>
