<svg width="32" height="32" viewBox="0 0 32 32" fill="none" xmlns="http://www.w3.org/2000/svg">
<path d="M21.3337 24.0001L24.0003 26.6667L29.3337 21.3334M29.3337 13.3334H2.66699M29.3337 16.0001V10.9334C29.3337 9.43994 29.3337 8.69321 29.043 8.12278C28.7873 7.62101 28.3794 7.21306 27.8776 6.9574C27.3072 6.66675 26.5605 6.66675 25.067 6.66675H6.93366C5.44019 6.66675 4.69345 6.66675 4.12302 6.9574C3.62125 7.21306 3.2133 7.62101 2.95764 8.12277C2.66699 8.6932 2.66699 9.43994 2.66699 10.9334V21.0667C2.66699 22.5602 2.66699 23.307 2.95764 23.8774C3.2133 24.3792 3.62125 24.7871 4.12302 25.0428C4.69345 25.3334 5.44019 25.3334 6.93366 25.3334H16.0003" stroke="#DC2668" stroke-width="2.66667" stroke-linecap="round" stroke-linejoin="round"/>
</svg>
