<svg width="32" height="32" viewBox="0 0 32 32" fill="none" xmlns="http://www.w3.org/2000/svg">
<g clip-path="url(#clip0_275_3440)">
<rect width="32" height="32" fill="white"/>
<path d="M28.2858 9.58047L22.3756 25.7106L19.8144 26.9666L15.8989 15.3676L12.2296 25.7106L9.66843 26.9666L3.33949 9.53122L1 8.12753L1.49252 7.14248H8.24011V7.90589L6.44239 9.26033L11.5646 23.6913L15.234 13.4468L13.9041 9.5066L11.6385 8.12753L12.131 7.14248H19.3712V7.90589L17.1794 9.6051L21.7599 23.642L26.8329 9.6051L22.4494 8.12753L22.942 7.14248H30.4283V7.90589L28.2858 9.58047Z" fill="#461A02"/>
<path d="M34.5032 24.6517C35.5047 24.6517 36.58 24.192 37.7292 23.2726V20.7854H33.3704C33.157 21.0481 33.001 21.3108 32.9025 21.5734C32.8204 21.8361 32.7794 22.1234 32.7794 22.4354C32.7794 23.0428 32.9353 23.5682 33.2473 24.0114C33.5592 24.4383 33.9778 24.6517 34.5032 24.6517Z" fill="#461A02"/>
<path d="M60.1168 26.5233H55.4378V18.2243C55.4378 17.3213 55.2982 16.6892 55.0191 16.3281C54.74 15.9669 54.2393 15.7863 53.5169 15.7863C52.9752 15.7863 52.4334 15.8848 51.8916 16.0818C51.3663 16.2788 50.7424 16.6564 50.02 17.2146V24.6763L52.2364 25.5383L51.7439 26.5233H44.8731V25.7599L47.0649 24.0361V17.0668L44.8731 15.7863V15.0229L49.0842 12.9543L49.8969 16.1557L53.3938 13.3729C53.7386 13.2416 54.1901 13.1759 54.7482 13.1759C55.8646 13.1759 56.7512 13.5207 57.4079 14.2102C58.0646 14.8833 58.3929 15.8027 58.3929 16.9683V24.6517L60.6093 25.5383L60.1168 26.5233Z" fill="#461A02"/>
<path d="M77.4475 26.4987H72.7685V24.7256L70.4782 26.5479C69.9529 26.6793 69.3208 26.7449 68.582 26.7449C67.4985 26.7449 66.5216 26.4658 65.6515 25.9077C64.7978 25.333 64.1247 24.5614 63.6322 23.5928C63.1561 22.6242 62.918 21.557 62.918 20.3914C62.918 19.1272 63.3038 17.9452 64.0754 16.8452C64.847 15.7288 65.8075 14.8423 66.9567 14.1856C68.1223 13.5125 69.2469 13.1759 70.3305 13.1759C71.2334 13.1759 72.0543 13.4304 72.7931 13.9393V8.86631L70.6014 7.33949V6.57608L74.8125 5H75.7483V24.6517L77.94 25.5136L77.4475 26.4987ZM69.838 24.6517C70.3305 24.6517 70.7984 24.586 71.2417 24.4547C71.7013 24.3069 72.2103 24.0361 72.7685 23.642V18.0273C72.67 17.2064 72.2842 16.5415 71.6111 16.0325C70.9544 15.5072 70.0514 15.2445 68.9022 15.2445C67.047 15.2445 66.1194 16.5661 66.1194 19.2093C66.1194 20.7526 66.4395 22.0495 67.0798 23.1003C67.7201 24.1346 68.6395 24.6517 69.838 24.6517Z" fill="#461A02"/>
<path d="M88.3342 26.5479C87.6775 26.6793 86.8894 26.7449 85.9701 26.7449C84.8865 26.7449 83.9097 26.4658 83.0395 25.9077C82.1858 25.333 81.5127 24.5614 81.0202 23.5928C80.5441 22.6242 80.306 21.557 80.306 20.3914C80.306 19.1272 80.6918 17.9452 81.4635 16.8452C82.2351 15.7288 83.1955 14.8423 84.3447 14.1856C85.5104 13.5125 86.635 13.1759 87.7185 13.1759C89.2782 13.1759 90.4849 13.7916 91.3386 15.0229C92.2087 16.2542 92.6438 17.8795 92.6438 19.8989H83.5321C83.6306 21.2943 84.0082 22.4354 84.6649 23.3219C85.338 24.2084 86.2492 24.6517 87.3984 24.6517C88.4655 24.6517 89.9841 23.8226 91.9542 22.1645L92.693 23.1003L88.3342 26.5479ZM86.2902 15.2445C84.5171 15.2445 83.5895 16.4594 83.5074 18.8892H89.27C89.1222 18.0026 88.9662 17.3295 88.8021 16.8698C88.6543 16.3937 88.3834 16.0079 87.9894 15.7124C87.6118 15.4005 87.0454 15.2445 86.2902 15.2445Z" fill="#461A02"/>
<path d="M104.651 13.2005C105.193 13.2005 105.669 13.3483 106.079 13.6438C106.49 13.9393 106.81 14.3497 107.04 14.8751L105.414 16.9191H104.479C104.413 16.5086 104.29 16.2213 104.109 16.0572C103.945 15.8766 103.715 15.7863 103.42 15.7863C103.058 15.7863 102.673 15.8848 102.262 16.0818C101.868 16.2624 101.417 16.6154 100.908 17.1407V24.4793L104.355 25.5383L103.863 26.5233H95.7609V25.7599L97.9526 24.0361V17.0668L95.7609 15.7863V15.0229L99.972 12.9543L100.735 15.9833L103.297 13.3729C103.641 13.2416 104.093 13.1759 104.651 13.1759V13.2005Z" fill="#461A02"/>
<path d="M114.909 26.4987H108.038V25.7353L110.23 24.0114V8.86631L108.038 7.33949V6.57608L112.249 5H113.185V24.6517L115.402 25.5136L114.909 26.4987Z" fill="#461A02"/>
<path d="M130.624 14.1856L124.394 26.4987L119.271 33L118.336 32.2612C119.271 31.2597 119.977 30.3814 120.453 29.6262C120.946 28.871 121.291 28.1076 121.488 27.336C121.685 26.5808 121.783 25.6778 121.783 24.6271L118.68 17.1161L116.39 15.7863V15.0229L120.601 12.9543L121.537 16.6728L124.541 24.0114L128.014 16.796L124.738 14.4072L125.231 13.4222H130.624V14.1856Z" fill="#461A02"/>
</g>
<defs>
<clipPath id="clip0_275_3440">
<rect width="32" height="32" fill="white"/>
</clipPath>
</defs>
</svg>
