<svg width="32" height="32" viewBox="0 0 32 32" fill="none" xmlns="http://www.w3.org/2000/svg">
<path d="M29.3327 22.6666V18.6666M29.3327 18.6666H2.66602M29.3327 18.6666H15.9993V11.9999H25.3327C26.3935 11.9999 27.411 12.4213 28.1611 13.1715C28.9113 13.9216 29.3327 14.9391 29.3327 15.9999V18.6666ZM2.66602 10.6666V22.6666M6.66602 11.9999C6.66602 12.7072 6.94697 13.3854 7.44706 13.8855C7.94716 14.3856 8.62544 14.6666 9.33268 14.6666C10.0399 14.6666 10.7182 14.3856 11.2183 13.8855C11.7184 13.3854 11.9993 12.7072 11.9993 11.9999C11.9993 11.2927 11.7184 10.6144 11.2183 10.1143C10.7182 9.6142 10.0399 9.33325 9.33268 9.33325C8.62544 9.33325 7.94716 9.6142 7.44706 10.1143C6.94697 10.6144 6.66602 11.2927 6.66602 11.9999Z" stroke="#DC2668" stroke-width="2.66667" stroke-linecap="round" stroke-linejoin="round"/>
</svg>
