<svg width="40" height="40" viewBox="0 0 40 40" fill="none" xmlns="http://www.w3.org/2000/svg">
<path d="M14.9997 20L18.333 23.3333L25.833 15.8333M12.2226 6.36447C13.5623 6.25756 14.8342 5.73074 15.8571 4.85901C18.2442 2.82475 21.7551 2.82475 24.1422 4.85901C25.1651 5.73074 26.437 6.25756 27.7767 6.36447C30.9031 6.61396 33.3857 9.09655 33.6352 12.2229C33.7421 13.5626 34.2689 14.8345 35.1406 15.8574C37.1749 18.2445 37.1749 21.7554 35.1406 24.1425C34.2689 25.1655 33.7421 26.4373 33.6352 27.777C33.3857 30.9034 30.9031 33.386 27.7767 33.6355C26.437 33.7424 25.1651 34.2692 24.1422 35.1409C21.7551 37.1752 18.2442 37.1752 15.8571 35.1409C14.8342 34.2692 13.5623 33.7424 12.2226 33.6355C9.09625 33.386 6.61365 30.9034 6.36417 27.777C6.25726 26.4373 5.73044 25.1655 4.85871 24.1425C2.82444 21.7554 2.82444 18.2445 4.85871 15.8574C5.73044 14.8345 6.25726 13.5626 6.36417 12.2229C6.61365 9.09655 9.09625 6.61396 12.2226 6.36447Z" stroke="#DC2668" stroke-width="3.33333" stroke-linecap="round" stroke-linejoin="round"/>
</svg>
