<svg width="40" height="40" viewBox="0 0 40 40" fill="none" xmlns="http://www.w3.org/2000/svg">
<path d="M14.9997 5.83333V3.33333M8.43411 8.43443L6.66634 6.66666M8.43411 21.6667L6.66634 23.4344M21.6663 8.43443L23.4341 6.66666M5.83301 15H3.33301M26.4405 26.9826L22.2876 34.6951C21.8131 35.5761 21.5759 36.0167 21.2905 36.1281C21.0428 36.2248 20.7639 36.1975 20.5396 36.0546C20.2812 35.89 20.1339 35.4118 19.8394 34.4554L14.075 15.7421C13.8343 14.9608 13.714 14.5702 13.8108 14.3064C13.8952 14.0766 14.0763 13.8955 14.3061 13.8112C14.5699 13.7143 14.9605 13.8347 15.7418 14.0753L34.455 19.8397C35.4114 20.1343 35.8896 20.2816 36.0542 20.54C36.1971 20.7643 36.2244 21.0432 36.1277 21.2909C36.0163 21.5763 35.5757 21.8135 34.6947 22.288L26.9823 26.4408C26.8514 26.5113 26.7859 26.5465 26.7286 26.5918C26.6777 26.632 26.6317 26.678 26.5915 26.7289C26.5462 26.7862 26.511 26.8517 26.4405 26.9826Z" stroke="#DC2668" stroke-width="3.33333" stroke-linecap="round" stroke-linejoin="round"/>
</svg>
