<svg width="40" height="40" viewBox="0 0 40 40" fill="none" xmlns="http://www.w3.org/2000/svg">
<path d="M11.666 11.6667V11.6833M11.666 16.6667V16.6833M11.666 21.6667V21.6833M28.3327 11.6667V11.6833M28.3327 16.6667V16.6833M28.3327 21.6667V21.6833M13.3327 35C13.7747 35 14.1986 34.8244 14.5112 34.5118C14.8238 34.1993 14.9993 33.7754 14.9993 33.3333V31.6667C14.9993 30.3406 15.5261 29.0688 16.4638 28.1311C17.4015 27.1934 18.6733 26.6667 19.9993 26.6667C21.3254 26.6667 22.5972 27.1934 23.5349 28.1311C24.4726 29.0688 24.9993 30.3406 24.9993 31.6667V33.3333C24.9993 33.7754 25.1749 34.1993 25.4875 34.5118C25.8001 34.8244 26.224 35 26.666 35H31.666C32.108 35 32.532 34.8244 32.8445 34.5118C33.1571 34.1993 33.3327 33.7754 33.3327 33.3333V8.33333L28.3327 5L23.3327 8.33333V18.3333H16.666V8.33333L11.666 5L6.66602 8.33333V33.3333C6.66602 33.7754 6.84161 34.1993 7.15417 34.5118C7.46673 34.8244 7.89065 35 8.33268 35H13.3327Z" stroke="#DC2668" stroke-width="3.33333" stroke-linecap="round" stroke-linejoin="round"/>
</svg>
