<svg width="32" height="32" viewBox="0 0 32 32" fill="none" xmlns="http://www.w3.org/2000/svg">
<path d="M6.66699 17.3334H10.667M2.66699 12L5.33366 13.3334L7.02785 8.2508C7.37755 7.20171 7.5524 6.67716 7.87671 6.28935C8.1631 5.94689 8.53088 5.6818 8.94633 5.51841C9.4168 5.33337 9.96972 5.33337 11.0756 5.33337H20.9251C22.0309 5.33337 22.5838 5.33337 23.0543 5.51841C23.4698 5.6818 23.8376 5.94689 24.1239 6.28935C24.4483 6.67716 24.6231 7.20171 24.9728 8.2508L26.667 13.3334L29.3337 12M21.3337 17.3334H25.3337M9.06699 13.3334H22.9337C25.1739 13.3334 26.294 13.3334 27.1496 13.7693C27.9023 14.1528 28.5142 14.7648 28.8977 15.5174C29.3337 16.3731 29.3337 17.4932 29.3337 19.7334V23.3334C29.3337 23.9529 29.3337 24.2627 29.2824 24.5203C29.072 25.5781 28.2451 26.4051 27.1872 26.6155C26.9296 26.6667 26.6199 26.6667 26.0003 26.6667H25.3337C23.8609 26.6667 22.667 25.4728 22.667 24C22.667 23.6319 22.3685 23.3334 22.0003 23.3334H10.0003C9.63214 23.3334 9.33366 23.6319 9.33366 24C9.33366 25.4728 8.13975 26.6667 6.66699 26.6667H6.00033C5.38079 26.6667 5.07102 26.6667 4.81342 26.6155C3.75558 26.4051 2.92865 25.5781 2.71823 24.5203C2.66699 24.2627 2.66699 23.9529 2.66699 23.3334V19.7334C2.66699 17.4932 2.66699 16.3731 3.10297 15.5174C3.48646 14.7648 4.09838 14.1528 4.85103 13.7693C5.70668 13.3334 6.82678 13.3334 9.06699 13.3334Z" stroke="#DC2668" stroke-width="2.66667" stroke-linecap="round" stroke-linejoin="round"/>
</svg>
