<svg width="32" height="32" viewBox="0 0 32 32" fill="none" xmlns="http://www.w3.org/2000/svg">
<path d="M21.6667 10.3333H21.6733M21.6667 21.6667H21.6733M10.3333 10.3333H10.34M10.3333 21.6667H10.34M10.4 28H21.6C23.8402 28 24.9603 28 25.816 27.564C26.5686 27.1805 27.1805 26.5686 27.564 25.816C28 24.9603 28 23.8402 28 21.6V10.4C28 8.15979 28 7.03969 27.564 6.18404C27.1805 5.43139 26.5686 4.81947 25.816 4.43597C24.9603 4 23.8402 4 21.6 4H10.4C8.15979 4 7.03969 4 6.18404 4.43597C5.43139 4.81947 4.81947 5.43139 4.43597 6.18404C4 7.03969 4 8.15979 4 10.4V21.6C4 23.8402 4 24.9603 4.43597 25.816C4.81947 26.5686 5.43139 27.1805 6.18404 27.564C7.03969 28 8.15979 28 10.4 28ZM22 10.3333C22 10.5174 21.8508 10.6667 21.6667 10.6667C21.4826 10.6667 21.3333 10.5174 21.3333 10.3333C21.3333 10.1492 21.4826 10 21.6667 10C21.8508 10 22 10.1492 22 10.3333ZM22 21.6667C22 21.8508 21.8508 22 21.6667 22C21.4826 22 21.3333 21.8508 21.3333 21.6667C21.3333 21.4826 21.4826 21.3333 21.6667 21.3333C21.8508 21.3333 22 21.4826 22 21.6667ZM10.6667 10.3333C10.6667 10.5174 10.5174 10.6667 10.3333 10.6667C10.1492 10.6667 10 10.5174 10 10.3333C10 10.1492 10.1492 10 10.3333 10C10.5174 10 10.6667 10.1492 10.6667 10.3333ZM10.6667 21.6667C10.6667 21.8508 10.5174 22 10.3333 22C10.1492 22 10 21.8508 10 21.6667C10 21.4826 10.1492 21.3333 10.3333 21.3333C10.5174 21.3333 10.6667 21.4826 10.6667 21.6667Z" stroke="#DC2668" stroke-width="2.66667" stroke-linecap="round" stroke-linejoin="round"/>
</svg>
