<svg width="40" height="40" viewBox="0 0 40 40" fill="none" xmlns="http://www.w3.org/2000/svg">
<path d="M32.4982 20.9531L19.9982 33.3331L7.49822 20.9531C6.67373 20.1508 6.02429 19.1865 5.5908 18.1209C5.15731 17.0552 4.94916 15.9114 4.97945 14.7614C5.00975 13.6113 5.27783 12.48 5.76682 11.4387C6.25581 10.3974 6.95512 9.46856 7.8207 8.71077C8.68629 7.95298 9.6994 7.38262 10.7962 7.03561C11.8931 6.68859 13.0499 6.57245 14.1938 6.69448C15.3378 6.8165 16.4441 7.17407 17.443 7.74465C18.442 8.31523 19.312 9.08647 19.9982 10.0098C20.6874 9.09318 21.5585 8.32867 22.5567 7.76415C23.555 7.19962 24.659 6.84722 25.7998 6.72901C26.9405 6.61079 28.0934 6.7293 29.1862 7.07713C30.279 7.42495 31.2883 7.9946 32.1508 8.75041C33.0134 9.50623 33.7106 10.4319 34.1989 11.4696C34.6872 12.5073 34.9561 13.6346 34.9887 14.781C35.0213 15.9274 34.817 17.0681 34.3884 18.1319C33.9599 19.1957 33.3164 20.1595 32.4982 20.9631M19.9982 9.99981L14.5098 15.4881C14.1974 15.8007 14.0219 16.2245 14.0219 16.6665C14.0219 17.1084 14.1974 17.5323 14.5098 17.8448L15.4148 18.7498C16.5648 19.8998 18.4315 19.8998 19.5815 18.7498L21.2482 17.0831C22.2427 16.0886 23.5917 15.5299 24.9982 15.5299C26.4047 15.5299 27.7536 16.0886 28.7482 17.0831L32.4982 20.8331M20.8316 25.8331L24.1649 29.1665M24.9982 21.6665L28.3316 24.9998" stroke="#DC2668" stroke-width="3.33333" stroke-linecap="round" stroke-linejoin="round"/>
</svg>
