<svg width="40" height="40" viewBox="0 0 40 40" fill="none" xmlns="http://www.w3.org/2000/svg">
<path d="M11.666 35L14.9993 28.3333M21.666 35V28.3333L16.666 23.3333M16.666 23.3333L18.3327 13.3333M16.666 23.3333L13.621 21.3033C13.0487 20.9219 12.6084 20.3728 12.3604 19.7313C12.1124 19.0897 12.069 18.3872 12.236 17.72L12.7027 15.8583C12.8829 15.1375 13.2988 14.4975 13.8843 14.04C14.4698 13.5825 15.1913 13.3338 15.9344 13.3333H18.3327M18.3327 13.3333L23.3327 20L28.3327 23.3333M18.3327 13.3333L24.9994 15L29.9994 11.6667M28.3327 20V35M26.666 33.3333H29.9993M18.3327 6.66667C18.3327 7.10869 18.5083 7.53262 18.8208 7.84518C19.1334 8.15774 19.5573 8.33333 19.9993 8.33333C20.4414 8.33333 20.8653 8.15774 21.1779 7.84518C21.4904 7.53262 21.666 7.10869 21.666 6.66667C21.666 6.22464 21.4904 5.80072 21.1779 5.48816C20.8653 5.17559 20.4414 5 19.9993 5C19.5573 5 19.1334 5.17559 18.8208 5.48816C18.5083 5.80072 18.3327 6.22464 18.3327 6.66667Z" stroke="#DC2668" stroke-width="3.33333" stroke-linecap="round" stroke-linejoin="round"/>
</svg>
