<svg width="40" height="40" viewBox="0 0 40 40" fill="none" xmlns="http://www.w3.org/2000/svg">
<path d="M13.334 35V11.6667C13.334 10.1167 13.334 9.34174 13.5044 8.7059C13.9667 6.98044 15.3144 5.63271 17.0399 5.17037C17.6757 5 18.4507 5 20.0007 5C21.5506 5 22.3256 5 22.9614 5.17037C24.6869 5.63271 26.0346 6.98044 26.4969 8.7059C26.6673 9.34174 26.6673 10.1167 26.6673 11.6667V22.5M26.6673 29.1667V35M11.334 35H28.6673C31.4676 35 32.8677 35 33.9373 34.455C34.8781 33.9757 35.643 33.2108 36.1223 32.27C36.6673 31.2004 36.6673 29.8003 36.6673 27V19.6667C36.6673 16.8664 36.6673 15.4663 36.1223 14.3967C35.643 13.4559 34.8781 12.691 33.9373 12.2116C32.8677 11.6667 31.4676 11.6667 28.6673 11.6667H11.334C8.53372 11.6667 7.13359 11.6667 6.06403 12.2116C5.12322 12.691 4.35832 13.4559 3.87895 14.3967C3.33398 15.4663 3.33398 16.8664 3.33398 19.6667V27C3.33398 29.8003 3.33398 31.2004 3.87895 32.27C4.35832 33.2108 5.12322 33.9757 6.06403 34.455C7.13359 35 8.53372 35 11.334 35ZM21.334 29.1667H29.5007C29.9674 29.1667 30.2007 29.1667 30.379 29.0758C30.5358 28.9959 30.6633 28.8685 30.7432 28.7117C30.834 28.5334 30.834 28.3 30.834 27.8333V23.8333C30.834 23.3666 30.834 23.1333 30.7432 22.955C30.6633 22.7982 30.5358 22.6707 30.379 22.5908C30.2007 22.5 29.9674 22.5 29.5007 22.5H21.334C20.8673 22.5 20.6339 22.5 20.4557 22.5908C20.2989 22.6707 20.1714 22.7982 20.0915 22.955C20.0007 23.1333 20.0007 23.3666 20.0007 23.8333V27.8333C20.0007 28.3 20.0007 28.5334 20.0915 28.7117C20.1714 28.8685 20.2989 28.9959 20.4557 29.0758C20.6339 29.1667 20.8673 29.1667 21.334 29.1667Z" stroke="#DC2668" stroke-width="3.33333" stroke-linecap="round" stroke-linejoin="round"/>
</svg>
