<svg width="40" height="40" viewBox="0 0 40 40" fill="none" xmlns="http://www.w3.org/2000/svg">
<path d="M10 18.3333L16.6667 14.9999L22.5 19.9999L20 23.3333M5 27.9166C5.51882 28.1745 6.08749 28.3167 6.66667 28.3333C7.31583 28.3468 7.95854 28.2022 8.53929 27.9118C9.12005 27.6215 9.62138 27.1941 10 26.6666C10.3786 26.1391 10.88 25.7117 11.4607 25.4213C12.0415 25.131 12.6842 24.9863 13.3333 24.9999C13.9825 24.9863 14.6252 25.131 15.206 25.4213C15.7867 25.7117 16.288 26.1391 16.6667 26.6666C17.0453 27.1941 17.5466 27.6215 18.1274 27.9118C18.7081 28.2022 19.3508 28.3468 20 28.3333C20.6492 28.3468 21.2919 28.2022 21.8726 27.9118C22.4534 27.6215 22.9547 27.1941 23.3333 26.6666C23.712 26.1391 24.2133 25.7117 24.794 25.4213C25.3748 25.131 26.0175 24.9863 26.6667 24.9999C27.3158 24.9863 27.9585 25.131 28.5393 25.4213C29.12 25.7117 29.6214 26.1391 30 26.6666C30.3786 27.1941 30.88 27.6215 31.4607 27.9118C32.0415 28.2022 32.6842 28.3468 33.3333 28.3333C33.9125 28.3167 34.4812 28.1745 35 27.9166M25 14.9999C25 15.4419 25.1756 15.8659 25.4882 16.1784C25.8007 16.491 26.2246 16.6666 26.6667 16.6666C27.1087 16.6666 27.5326 16.491 27.8452 16.1784C28.1577 15.8659 28.3333 15.4419 28.3333 14.9999C28.3333 14.5579 28.1577 14.134 27.8452 13.8214C27.5326 13.5088 27.1087 13.3333 26.6667 13.3333C26.2246 13.3333 25.8007 13.5088 25.4882 13.8214C25.1756 14.134 25 14.5579 25 14.9999Z" stroke="#DC2668" stroke-width="3.33333" stroke-linecap="round" stroke-linejoin="round"/>
</svg>
