<svg width="48" height="48" viewBox="0 0 48 48" fill="none" xmlns="http://www.w3.org/2000/svg">
<rect width="48" height="48" rx="12" fill="#F9E3FF"/>
<path d="M24 34.5C29.5228 34.5 34 30.0228 34 24.5C34 18.9772 29.5228 14.5 24 14.5C18.4772 14.5 14 18.9772 14 24.5C14 30.0228 18.4772 34.5 24 34.5Z" stroke="#9804C5" stroke-width="2" stroke-linecap="round" stroke-linejoin="round"/>
<path d="M26.7221 20.766C27.2107 20.6031 27.4549 20.5217 27.6174 20.5796C27.7587 20.63 27.87 20.7413 27.9204 20.8826C27.9783 21.0451 27.8969 21.2893 27.734 21.7779L26.2465 26.2405C26.2001 26.3797 26.1769 26.4492 26.1374 26.507C26.1024 26.5582 26.0582 26.6024 26.007 26.6374C25.9492 26.6769 25.8797 26.7001 25.7405 26.7465L21.2779 28.234C20.7893 28.3969 20.5451 28.4783 20.3826 28.4204C20.2413 28.37 20.13 28.2587 20.0796 28.1174C20.0217 27.9549 20.1031 27.7107 20.266 27.2221L21.7535 22.7595C21.7999 22.6203 21.8231 22.5508 21.8626 22.493C21.8976 22.4418 21.9418 22.3976 21.993 22.3626C22.0508 22.3231 22.1203 22.2999 22.2595 22.2535L26.7221 20.766Z" stroke="#9804C5" stroke-width="2" stroke-linecap="round" stroke-linejoin="round"/>
</svg>
